<?xml version="1.0" encoding="UTF-8" standalone="no"?>


<svg
 xmlns:dc="http://purl.org/dc/elements/1.1/"
   xmlns:cc="http://creativecommons.org/ns#"
   xmlns:rdf="http://www.w3.org/1999/02/22-rdf-syntax-ns#"
   xmlns:svg="http://www.w3.org/2000/svg"
   xmlns="http://www.w3.org/2000/svg"
   xmlns:xlink="http://www.w3.org/1999/xlink"
   xmlns:sodipodi="http://sodipodi.sourceforge.net/DTD/sodipodi-0.dtd"
   xmlns:inkscape="http://www.inkscape.org/namespaces/inkscape"
 version="1.1" class="holidays" x="0px" y="0px" style="fill:#000;stroke:#000;" width="100px" height="100px" viewBox="0 0 80 80"><g><path d="M39,27c3.31,0,6-2.69,6-6s-2.69-6-6-6s-6,2.69-6,6S35.69,27,39,27z M39,17c2.21,0,4,1.79,4,4s-1.79,4-4,4s-4-1.79-4-4   S36.79,17,39,17z"></path><path d="M18.89,38.53c0.17-0.34,0.14-0.75-0.09-1.05l-1.12-1.5l0.6-1.77c0.12-0.36,0.03-0.76-0.24-1.03   c-0.27-0.27-0.67-0.36-1.03-0.24l-1.77,0.6l-1.5-1.12c-0.31-0.23-0.71-0.26-1.05-0.09c-0.34,0.17-0.55,0.52-0.55,0.9l0.02,1.87   l-1.53,1.08c-0.31,0.22-0.47,0.6-0.41,0.97s0.33,0.69,0.69,0.8l1.78,0.55l0.55,1.78c0.11,0.36,0.42,0.63,0.8,0.69   C14.12,41,14.17,41,14.22,41c0.32,0,0.63-0.16,0.82-0.42l1.08-1.53l1.87,0.02C18.38,39.06,18.72,38.87,18.89,38.53z M15.62,37.04   c-0.32,0.03-0.64,0.15-0.83,0.42l-0.21,0.3l-0.11-0.35c-0.1-0.31-0.34-0.56-0.66-0.66l-0.35-0.11l0.3-0.21   c0.27-0.19,0.43-0.5,0.42-0.83l0-0.37l0.29,0.22c0.26,0.2,0.61,0.25,0.92,0.15l0.35-0.12l-0.12,0.35   c-0.11,0.31-0.05,0.66,0.15,0.92l0.22,0.29L15.62,37.04z"></path><path d="M39,13c0.55,0,1-0.45,1-1V1c0-0.55-0.45-1-1-1s-1,0.45-1,1v11C38,12.55,38.45,13,39,13z"></path><path d="M39,56.5c-0.55,0-1,0.45-1,1V59c0,0.55,0.45,1,1,1s1-0.45,1-1v-1.5C40,56.95,39.55,56.5,39,56.5z"></path><path d="M39,39.17c-0.55,0-1,0.45-1,1v2.89c0,0.55,0.45,1,1,1s1-0.45,1-1v-2.89C40,39.61,39.55,39.17,39,39.17z"></path><path d="M39,33.39c-0.55,0-1,0.45-1,1v2.89c0,0.55,0.45,1,1,1s1-0.45,1-1v-2.89C40,33.84,39.55,33.39,39,33.39z"></path><path d="M39,44.94c-0.55,0-1,0.45-1,1v2.89c0,0.55,0.45,1,1,1s1-0.45,1-1v-2.89C40,45.39,39.55,44.94,39,44.94z"></path><path d="M39,50.72c-0.55,0-1,0.45-1,1v2.89c0,0.55,0.45,1,1,1s1-0.45,1-1v-2.89C40,51.17,39.55,50.72,39,50.72z"></path><path d="M39,29c-0.55,0-1,0.45-1,1v1.5c0,0.55,0.45,1,1,1s1-0.45,1-1V30C40,29.45,39.55,29,39,29z"></path><path d="M59,20H48c-0.55,0-1,0.45-1,1s0.45,1,1,1h11c0.55,0,1-0.45,1-1S59.55,20,59,20z"></path><path d="M19,22h11c0.55,0,1-0.45,1-1s-0.45-1-1-1H19c-0.55,0-1,0.45-1,1S18.45,22,19,22z"></path><path d="M44.66,15.34c0.2,0.2,0.45,0.29,0.71,0.29s0.51-0.1,0.71-0.29l7.78-7.78c0.39-0.39,0.39-1.02,0-1.41s-1.02-0.39-1.41,0   l-7.78,7.78C44.27,14.32,44.27,14.95,44.66,15.34z"></path><path d="M26,35c0.26,0,0.51-0.1,0.71-0.29l6.64-6.64c0.39-0.39,0.39-1.02,0-1.41s-1.02-0.39-1.41,0l-6.64,6.64   c-0.39,0.39-0.39,1.02,0,1.41C25.49,34.9,25.74,35,26,35z"></path><path d="M46.07,26.66c-0.39-0.39-1.02-0.39-1.41,0s-0.39,1.02,0,1.41l7.78,7.78c0.2,0.2,0.45,0.29,0.71,0.29s0.51-0.1,0.71-0.29   c0.39-0.39,0.39-1.02,0-1.41L46.07,26.66z"></path><path d="M31.93,15.34c0.2,0.2,0.45,0.29,0.71,0.29s0.51-0.1,0.71-0.29c0.39-0.39,0.39-1.02,0-1.41l-7.78-7.78   c-0.39-0.39-1.02-0.39-1.41,0s-0.39,1.02,0,1.41L31.93,15.34z"></path><path d="M42.17,13.51c0.13,0.06,0.26,0.08,0.4,0.08c0.39,0,0.76-0.23,0.92-0.6l4.36-10.1c0.22-0.51-0.01-1.1-0.52-1.31   c-0.51-0.22-1.1,0.01-1.31,0.52l-4.36,10.1C41.43,12.71,41.66,13.29,42.17,13.51z"></path><path d="M35.83,28.2c-0.51-0.22-1.1,0.01-1.31,0.52l-4.36,10.1c-0.22,0.51,0.01,1.1,0.52,1.31c0.13,0.06,0.26,0.08,0.4,0.08   c0.39,0,0.76-0.23,0.92-0.6l4.36-10.1C36.57,29.01,36.34,28.42,35.83,28.2z"></path><path d="M57.76,27.87l-10.1-4.36c-0.51-0.22-1.1,0.01-1.31,0.52c-0.22,0.51,0.01,1.1,0.52,1.31l10.1,4.36   c0.13,0.06,0.26,0.08,0.4,0.08c0.39,0,0.76-0.23,0.92-0.6C58.5,28.68,58.26,28.09,57.76,27.87z"></path><path d="M20.24,13.85l10.1,4.36c0.13,0.06,0.26,0.08,0.4,0.08c0.39,0,0.76-0.23,0.92-0.6c0.22-0.51-0.01-1.1-0.52-1.31l-10.1-4.36   c-0.51-0.22-1.1,0.01-1.31,0.52C19.5,13.04,19.74,13.63,20.24,13.85z"></path><path d="M46.54,18.19c0.15,0.41,0.53,0.67,0.94,0.67c0.11,0,0.22-0.02,0.33-0.06l10.37-3.66c0.52-0.18,0.79-0.76,0.61-1.28   c-0.18-0.52-0.75-0.79-1.28-0.61l-10.37,3.66C46.63,17.1,46.36,17.67,46.54,18.19z"></path><path d="M24,27c0.1,0,0.21-0.02,0.31-0.05l6.51-2.14c0.52-0.17,0.81-0.74,0.64-1.26s-0.74-0.81-1.26-0.64l-6.51,2.14   c-0.52,0.17-0.81,0.74-0.64,1.26C23.19,26.73,23.58,27,24,27z"></path><path d="M42.94,29.01c-0.18-0.52-0.76-0.79-1.28-0.61c-0.52,0.18-0.79,0.76-0.61,1.28l3.66,10.37c0.15,0.41,0.53,0.67,0.94,0.67   c0.11,0,0.22-0.02,0.33-0.06c0.52-0.18,0.79-0.76,0.61-1.28L42.94,29.01z"></path><path d="M35.06,12.71c0.15,0.41,0.53,0.67,0.94,0.67c0.11,0,0.22-0.02,0.33-0.06c0.52-0.18,0.79-0.76,0.61-1.28L33.28,1.67   c-0.18-0.52-0.76-0.79-1.28-0.61c-0.52,0.18-0.79,0.76-0.61,1.28L35.06,12.71z"></path><path d="M16,22c0-0.55-0.45-1-1-1s-1,0.45-1,1v2c0,0.55,0.45,1,1,1s1-0.45,1-1V22z"></path><path d="M15,30c0.55,0,1-0.45,1-1v-2c0-0.55-0.45-1-1-1s-1,0.45-1,1v2C14,29.55,14.45,30,15,30z"></path><path d="M15,42.05c-0.55,0-1,0.45-1,1V59c0,0.55,0.45,1,1,1s1-0.45,1-1V43.05C16,42.5,15.55,42.05,15,42.05z"></path><path d="M25,37c0-0.55-0.45-1-1-1h-2c-0.55,0-1,0.45-1,1s0.45,1,1,1h2C24.55,38,25,37.55,25,37z"></path><path d="M4,36c0-0.55-0.45-1-1-1H1c-0.55,0-1,0.45-1,1s0.45,1,1,1h2C3.55,37,4,36.55,4,36z"></path><path d="M6,37h2c0.55,0,1-0.45,1-1s-0.45-1-1-1H6c-0.55,0-1,0.45-1,1S5.45,37,6,37z"></path><path d="M20,34c0.21,0,0.42-0.07,0.6-0.2l1.6-1.2c0.44-0.33,0.53-0.96,0.2-1.4c-0.33-0.44-0.96-0.53-1.4-0.2l-1.6,1.2   c-0.44,0.33-0.53,0.96-0.2,1.4C19.4,33.86,19.7,34,20,34z"></path><path d="M24.01,31c0.55,0,1-0.45,1-1s-0.45-1-1-1H24c-0.55,0-1,0.45-1,1S23.46,31,24.01,31z"></path><path d="M9.24,43.17l1.41-1.42c0.39-0.39,0.39-1.02,0-1.41c-0.39-0.39-1.02-0.39-1.41,0l-1.41,1.42c-0.39,0.39-0.39,1.02,0,1.41   c0.2,0.2,0.45,0.29,0.71,0.29S9.05,43.37,9.24,43.17z"></path><path d="M5.71,43.88l-1.41,1.41c-0.39,0.39-0.39,1.02,0,1.41C4.49,46.9,4.74,47,5,47s0.51-0.1,0.71-0.29l1.41-1.41   c0.39-0.39,0.39-1.02,0-1.41S6.1,43.49,5.71,43.88z"></path><path d="M7.05,26.9l-1.28-1.54c-0.35-0.42-0.98-0.48-1.41-0.13c-0.42,0.35-0.48,0.98-0.13,1.41l1.28,1.54   c0.2,0.24,0.48,0.36,0.77,0.36c0.23,0,0.45-0.08,0.64-0.23C7.34,27.95,7.4,27.32,7.05,26.9z"></path><path d="M10.25,30.74L8.97,29.2c-0.35-0.42-0.98-0.48-1.41-0.13c-0.42,0.35-0.48,0.98-0.13,1.41l1.28,1.54   c0.2,0.24,0.48,0.36,0.77,0.36c0.23,0,0.45-0.08,0.64-0.23C10.55,31.79,10.6,31.16,10.25,30.74z"></path><path d="M19.79,26.42c0.14,0.07,0.3,0.11,0.45,0.11c0.37,0,0.72-0.2,0.9-0.55l0.76-1.53c0.25-0.49,0.05-1.09-0.45-1.34   c-0.5-0.25-1.1-0.05-1.34,0.45l-0.76,1.53C19.09,25.58,19.29,26.18,19.79,26.42z"></path><path d="M18,27.76l-0.89,1.79c-0.25,0.49-0.05,1.09,0.45,1.34C17.7,30.97,17.85,31,18,31c0.37,0,0.72-0.2,0.9-0.55l0.89-1.79   c0.25-0.49,0.05-1.09-0.45-1.34C18.85,27.07,18.25,27.27,18,27.76z"></path><path d="M10.34,46.32C9.85,46.07,9.25,46.27,9,46.76l-0.89,1.79c-0.25,0.49-0.05,1.09,0.45,1.34C8.7,49.97,8.85,50,9,50   c0.37,0,0.72-0.2,0.9-0.55l0.89-1.79C11.04,47.16,10.84,46.56,10.34,46.32z"></path><path d="M12.45,42.11c-0.49-0.25-1.09-0.05-1.34,0.45l-0.76,1.53c-0.25,0.49-0.05,1.09,0.45,1.34c0.14,0.07,0.3,0.11,0.45,0.11   c0.37,0,0.72-0.2,0.9-0.55l0.76-1.53C13.14,42.95,12.94,42.35,12.45,42.11z"></path><path d="M26.37,41.07l-0.36-0.14c-0.52-0.21-1.09,0.05-1.3,0.56c-0.2,0.51,0.05,1.09,0.56,1.3l0.36,0.14   C25.75,42.98,25.88,43,26,43c0.4,0,0.77-0.24,0.93-0.63C27.13,41.86,26.88,41.28,26.37,41.07z"></path><path d="M23.23,39.81l-1.86-0.74c-0.52-0.21-1.1,0.04-1.3,0.56c-0.21,0.51,0.04,1.09,0.56,1.3l1.86,0.74   c0.12,0.05,0.25,0.07,0.37,0.07c0.4,0,0.77-0.24,0.93-0.63C23.99,40.6,23.74,40.02,23.23,39.81z"></path><path d="M1.61,31.92l1.84,0.79c0.13,0.06,0.26,0.08,0.39,0.08c0.39,0,0.76-0.23,0.92-0.61c0.22-0.51-0.02-1.09-0.52-1.31   l-1.84-0.79c-0.51-0.22-1.1,0.02-1.31,0.53C0.86,31.11,1.1,31.7,1.61,31.92z"></path><path d="M5.68,32.58c-0.22,0.51,0.02,1.09,0.52,1.31l1.84,0.79c0.13,0.06,0.26,0.08,0.39,0.08c0.39,0,0.76-0.23,0.92-0.61   c0.22-0.51-0.02-1.09-0.52-1.31l-1.84-0.79C6.48,31.83,5.89,32.07,5.68,32.58z"></path><path d="M4.88,40.17c-0.15-0.53-0.7-0.83-1.24-0.69l-1.92,0.55c-0.53,0.15-0.84,0.71-0.69,1.24C1.16,41.71,1.56,42,2,42   c0.09,0,0.18-0.01,0.28-0.04l1.92-0.55C4.73,41.26,5.04,40.71,4.88,40.17z"></path><path d="M6.81,40.63c0.09,0,0.18-0.01,0.27-0.04L9,40.04c0.53-0.15,0.84-0.71,0.69-1.24c-0.15-0.53-0.71-0.83-1.24-0.69l-1.92,0.55   C6,38.82,5.69,39.37,5.85,39.9C5.97,40.34,6.37,40.63,6.81,40.63z"></path><path d="M21.61,45.61c-0.31-0.46-0.93-0.58-1.39-0.28s-0.58,0.93-0.28,1.39l1.11,1.66c0.19,0.29,0.51,0.45,0.83,0.45   c0.19,0,0.38-0.05,0.55-0.17c0.46-0.31,0.58-0.93,0.28-1.39L21.61,45.61z"></path><path d="M19.94,43.11l-1.11-1.66c-0.31-0.46-0.93-0.58-1.39-0.28c-0.46,0.31-0.58,0.93-0.28,1.39l1.11,1.66   c0.19,0.29,0.51,0.45,0.83,0.45c0.19,0,0.38-0.05,0.55-0.17C20.12,44.19,20.25,43.57,19.94,43.11z"></path><path d="M11.92,30.73c0.09,0,0.18-0.01,0.28-0.04c0.53-0.15,0.84-0.71,0.69-1.24l-0.55-1.92c-0.15-0.53-0.7-0.83-1.24-0.69   c-0.53,0.15-0.84,0.71-0.69,1.24L10.96,30C11.09,30.44,11.49,30.73,11.92,30.73z"></path><path d="M9.04,23.27l0.55,1.92c0.13,0.44,0.53,0.73,0.96,0.73c0.09,0,0.18-0.01,0.28-0.04c0.53-0.15,0.84-0.71,0.69-1.24   l-0.55-1.92c-0.15-0.53-0.71-0.83-1.24-0.69C9.19,22.19,8.89,22.74,9.04,23.27z"></path><path d="M5.5,15C7.43,15,9,13.43,9,11.5S7.43,8,5.5,8S2,9.57,2,11.5S3.57,15,5.5,15z M5.5,10C6.33,10,7,10.67,7,11.5   S6.33,13,5.5,13S4,12.33,4,11.5S4.67,10,5.5,10z"></path><path d="M14.5,9C16.43,9,18,7.43,18,5.5S16.43,2,14.5,2S11,3.57,11,5.5S12.57,9,14.5,9z M14.5,4C15.33,4,16,4.67,16,5.5   S15.33,7,14.5,7S13,6.33,13,5.5S13.67,4,14.5,4z"></path><circle cx="13.5" cy="12.5" r="1.5"></circle><circle cx="8.5" cy="17.5" r="1.5"></circle></g></svg>