<?xml version="1.0" encoding="UTF-8" standalone="no"?>

<svg 
 xmlns:dc="http://purl.org/dc/elements/1.1/"
   xmlns:cc="http://creativecommons.org/ns#"
   xmlns:rdf="http://www.w3.org/1999/02/22-rdf-syntax-ns#"
   xmlns:svg="http://www.w3.org/2000/svg"
   xmlns="http://www.w3.org/2000/svg"
   xmlns:xlink="http://www.w3.org/1999/xlink"
   xmlns:sodipodi="http://sodipodi.sourceforge.net/DTD/sodipodi-0.dtd"
   xmlns:inkscape="http://www.inkscape.org/namespaces/inkscape"
	version="1.1" class="original" x="0px" y="0px" style="fill:#000;stroke:#000;" width="100px" height="100px" viewBox="0 0 100 100"><path d="M21.8,54c1.3,1.1,1.7,3,1,4.6L22.2,60c-0.9,2.2,0.3,4.8,2.6,5.4l1.5,0.4c1.7,0.5,2.8,1.9,2.9,3.7l0.1,1.6  c0.1,2.2,1.9,3.8,4,3.8c0.2,0,0.5,0,0.7-0.1l1.6-0.3c0.2,0,0.5-0.1,0.7-0.1c1.5,0,2.8,0.8,3.5,2.1l0.7,1.4c0.7,1.4,2.1,2.1,3.5,2.1  c0.8,0,1.6-0.2,2.3-0.7l1.3-0.9c0.7-0.5,1.5-0.7,2.3-0.7c0.8,0,1.6,0.3,2.3,0.8l1.3,0.9c0.7,0.5,1.5,0.8,2.3,0.8  c1.4,0,2.8-0.7,3.5-2.1l0.8-1.4c0.7-1.3,2.1-2.1,3.5-2.1c0.2,0,0.5,0,0.7,0.1l1.5,0.3c0.2,0,0.5,0.1,0.7,0.1c2.1,0,3.9-1.6,4-3.8  l0.1-1.6c0.1-1.7,1.3-3.2,2.9-3.6l1.5-0.4c2.3-0.6,3.5-3.2,2.6-5.4l-0.6-1.5c-0.7-1.6-0.2-3.4,1.1-4.6l1.2-1c1.8-1.6,1.8-4.4,0-6  l-1.2-1c-1.3-1.1-1.7-3-1-4.6l0.6-1.4c0.9-2.2-0.3-4.8-2.6-5.4l-1.5-0.4c-1.7-0.5-2.8-1.9-2.9-3.7l-0.1-1.6c-0.1-2.2-1.9-3.8-4-3.8  c-0.2,0-0.5,0-0.7,0.1l-1.6,0.3c-0.2,0-0.5,0.1-0.7,0.1c-1.5,0-2.8-0.8-3.5-2.1L59.5,22c-0.7-1.4-2.1-2.1-3.5-2.1  c-0.8,0-1.6,0.2-2.3,0.7l-1.3,0.9c-0.7,0.5-1.5,0.7-2.3,0.7c-0.8,0-1.6-0.3-2.3-0.8l-1.3-0.9c-0.7-0.5-1.5-0.8-2.3-0.8  c-1.4,0-2.8,0.7-3.5,2.1l-0.8,1.4c-0.7,1.3-2.1,2.1-3.5,2.1c-0.2,0-0.5,0-0.7-0.1l-1.6-0.3c-0.2,0-0.5-0.1-0.7-0.1  c-2.1,0-3.9,1.6-4,3.8l-0.1,1.6c-0.1,1.7-1.3,3.2-2.9,3.6l-1.5,0.4c-2.3,0.6-3.5,3.2-2.6,5.4l0.6,1.5c0.7,1.6,0.2,3.4-1.1,4.6  l-1.2,1c-1.8,1.6-1.8,4.4,0,6L21.8,54z M42.1,46l4.7,4.7l11.2-11.1l4.8,4.9L51.6,55.6l-4.9,4.8l-4.8-4.9l-4.7-4.7L42.1,46z   M1.3,85.1l17-17c1.3,1.4,2.9,2.5,4.8,3l0.2,0l0,0.2c0.2,5.1,4.3,9.2,9.4,9.5L14.9,98.7c-0.6,0.6-1.6,0.2-1.7-0.6l-1.1-9.8  c0-0.3-0.3-0.6-0.6-0.6L2,86.8C1.1,86.7,0.8,85.7,1.3,85.1z M67.3,19.2L85.1,1.3c0.6-0.6,1.6-0.2,1.7,0.6l1.1,9.8  c0,0.3,0.3,0.6,0.6,0.6l9.6,0.9c0.8,0.1,1.2,1.1,0.6,1.7l-17,17c-1.3-1.4-2.9-2.5-4.8-3l-0.2,0l0-0.2C76.4,23.5,72.3,19.5,67.3,19.2  z"></path></svg>